<?xml version="1.0" encoding="UTF-8" standalone="no"?>
<!-- Created with Vectornator for iOS (http://vectornator.io/) -->

<svg
   height="406.89999"
   style="clip-rule:evenodd;fill-rule:nonzero;stroke-linecap:round;stroke-linejoin:round"
   version="1.1"
   viewBox="0 0 406.62051 406.90001"
   width="406.62051"
   xml:space="preserve"
   id="svg39"
   sodipodi:docname="veridise-logo-round-blue.svg"
   inkscape:version="1.2.2 (b0a84865, 2022-12-01)"
   xmlns:inkscape="http://www.inkscape.org/namespaces/inkscape"
   xmlns:sodipodi="http://sodipodi.sourceforge.net/DTD/sodipodi-0.dtd"
   xmlns="http://www.w3.org/2000/svg"
   xmlns:svg="http://www.w3.org/2000/svg"
   xmlns:vectornator="http://vectornator.io"><sodipodi:namedview
   id="namedview41"
   pagecolor="#ffffff"
   bordercolor="#000000"
   borderopacity="0.25"
   inkscape:showpageshadow="2"
   inkscape:pageopacity="0.0"
   inkscape:pagecheckerboard="0"
   inkscape:deskcolor="#d1d1d1"
   showgrid="false"
   inkscape:zoom="1.8628656"
   inkscape:cx="141.98555"
   inkscape:cy="203.45"
   inkscape:window-width="1390"
   inkscape:window-height="936"
   inkscape:window-x="2285"
   inkscape:window-y="25"
   inkscape:window-maximized="0"
   inkscape:current-layer="svg39" />
<metadata
   id="metadata2">
<vectornator:setting
   key="IsTimeLapseWatermarkDisabled"
   value="false" />
<vectornator:setting
   key="UndoHistoryDisabled"
   value="true" />
<vectornator:setting
   key="VNDimensionsVisible"
   value="true" />
<vectornator:setting
   key="VNSnapToGuides"
   value="false" />
<vectornator:setting
   key="WDCMYKEnabledKey"
   value="true" />
<vectornator:setting
   key="WDDisplayWhiteBackground"
   value="false" />
<vectornator:setting
   key="WDDynamicGuides"
   value="false" />
<vectornator:setting
   key="WDGuidesVisible"
   value="true" />
<vectornator:setting
   key="WDIsolateActiveLayer"
   value="false" />
<vectornator:setting
   key="WDOutlineMode"
   value="false" />
<vectornator:setting
   key="WDRulersVisible"
   value="true" />
<vectornator:setting
   key="WDSnapToEdges"
   value="true" />
<vectornator:setting
   key="WDSnapToGrid"
   value="false" />
<vectornator:setting
   key="WDSnapToPoints"
   value="false" />
<vectornator:setting
   key="WDUnits"
   value="Millimeters" />
</metadata>
<defs
   id="defs5" />

<g
   id="Layer 6"
   vectornator:layerName="Layer 6"
   transform="translate(-59.5145,-108.485)">
<path
   d="m 106.514,113.485 h 312.621 c 23.196,0 42,18.804 42,42 v 312.9 c 0,23.196 -18.804,42 -42,42 H 106.514 c -23.1955,0 -41.9995,-18.804 -41.9995,-42 v -312.9 c 0,-23.196 18.804,-42 41.9995,-42 z"
   fill="#0f4c81"
   opacity="1"
   stroke="#0f4c81"
   stroke-linecap="butt"
   stroke-linejoin="round"
   stroke-width="10"
   id="path10" />
</g>
<g
   id="Layer 4"
   vectornator:layerName="Layer 4"
   transform="translate(-59.5145,-108.485)">
<g
   opacity="1"
   id="g19">
<path
   d="m 114.647,162.765 c 15.837,202.886 155.676,319.219 155.676,319.219 0,0 130.978,-109.485 157.219,-335.217 2.912,-25.055 -8.655,55.168 -73.037,56.842 -42.637,1.108 -73.121,19.724 -77.151,56.918 -5.321,49.106 26.072,55.244 31.392,99.328 5.845,48.427 -34.865,84.089 -34.865,84.089 0,0 -92.405,-104.846 -89.424,-213.681 0.863,-31.515 18.796,-56.498 36.366,-63.25 57.828,-22.223 118.442,-11.004 101.348,-15.385 -82.271,-21.083 -208.395,-0.024 -207.524,11.137 z"
   fill="#ffffff"
   opacity="1"
   stroke="#ffffff"
   stroke-linecap="butt"
   stroke-linejoin="round"
   stroke-width="10"
   id="path13" />
<path
   d="m 99.3416,268.136 c -8.5713,51.19 19.1124,82.177 21.7144,81.241 33.697,-12.113 49.265,-12.428 85.256,-30.517 38.995,-19.598 56.791,-49.827 56.791,-49.827 0,0 -38.412,10.742 -84.009,9.634 -39.553,-0.962 -78.913,-15.546 -79.7524,-10.531 z"
   fill="#ffffff"
   opacity="1"
   stroke="#ffffff"
   stroke-linecap="butt"
   stroke-linejoin="round"
   stroke-width="10"
   id="path15" />
<path
   d="m 312.996,262.658 c 0,-13.177 10.8,-23.86 24.123,-23.86 13.323,0 24.123,10.683 24.123,23.86 0,13.177 -10.8,23.859 -24.123,23.859 -13.323,0 -24.123,-10.682 -24.123,-23.859 z"
   fill="#1a4e80"
   opacity="1"
   stroke="#1a4e80"
   stroke-linecap="butt"
   stroke-linejoin="round"
   stroke-width="10"
   id="path17" />
</g>
</g>

</svg>
