<?xml version="1.0" encoding="UTF-8" standalone="no"?>
<!DOCTYPE svg PUBLIC "-//W3C//DTD SVG 1.1//EN"
 "http://www.w3.org/Graphics/SVG/1.1/DTD/svg11.dtd">
<!-- Generated by graphviz version 2.43.0 (0)
 -->
<!-- Title: %3 Pages: 1 -->
<svg width="418pt" height="446pt"
 viewBox="0.00 0.00 418.05 446.00" xmlns="http://www.w3.org/2000/svg" xmlns:xlink="http://www.w3.org/1999/xlink">
<g id="graph0" class="graph" transform="scale(1 1) rotate(0) translate(4 442)">
<title>%3</title>
<polygon fill="white" stroke="transparent" points="-4,4 -4,-442 414.05,-442 414.05,4 -4,4"/>
<g id="clust2" class="cluster">
<title>clusterLegend</title>
<polygon fill="none" stroke="black" points="8,-181 8,-430 402.05,-430 402.05,-181 8,-181"/>
<text text-anchor="middle" x="205.02" y="-414.8" font-family="Times,serif" font-size="14.00">Legend</text>
</g>
<g id="clust3" class="cluster">
<title>cluster_Increment_0</title>
<polygon fill="none" stroke="black" points="29.79,-44 29.79,-173 380.26,-173 380.26,-44 29.79,-44"/>
<text text-anchor="middle" x="205.02" y="-157.8" font-family="Times,serif" font-size="14.00">Increment (main)</text>
</g>
<!-- main_magnet -->
<!-- Increment_0_a -->
<g id="node10" class="node">
<title>Increment_0_a</title>
<ellipse fill="#ffadad" stroke="black" cx="64.79" cy="-124" rx="27" ry="18"/>
<text text-anchor="middle" x="64.79" y="-120.3" font-family="Times,serif" font-size="14.00">a</text>
</g>
<!-- main_magnet&#45;&gt;Increment_0_a -->
<!-- Increment_0_b -->
<g id="node11" class="node">
<title>Increment_0_b</title>
<ellipse fill="#ffadad" stroke="black" cx="64.79" cy="-70" rx="27" ry="18"/>
<text text-anchor="middle" x="64.79" y="-66.3" font-family="Times,serif" font-size="14.00">b</text>
</g>
<!-- main_magnet&#45;&gt;Increment_0_b -->
<!-- Increment_0_out -->
<g id="node12" class="node">
<title>Increment_0_out</title>
<ellipse fill="#ffd6a5" stroke="black" cx="345.26" cy="-70" rx="27" ry="18"/>
<text text-anchor="middle" x="345.26" y="-66.3" font-family="Times,serif" font-size="14.00">out</text>
</g>
<!-- main_magnet&#45;&gt;Increment_0_out -->
<!-- inputSignal -->
<g id="node2" class="node">
<title>inputSignal</title>
<ellipse fill="#ffadad" stroke="black" cx="64.79" cy="-381" rx="29.6" ry="18"/>
<text text-anchor="middle" x="64.79" y="-377.9" font-family="Times,serif" font-size="12.00">Input</text>
</g>
<!-- outputSignal -->
<g id="node3" class="node">
<title>outputSignal</title>
<ellipse fill="#ffd6a5" stroke="black" cx="345.26" cy="-381" rx="35.91" ry="18"/>
<text text-anchor="middle" x="345.26" y="-377.9" font-family="Times,serif" font-size="12.00">Output</text>
</g>
<!-- inputSignal&#45;&gt;outputSignal -->
<g id="edge1" class="edge">
<title>inputSignal&#45;&gt;outputSignal</title>
<path fill="none" stroke="black" stroke-width="3" stroke-dasharray="1,5" d="M94.54,-381C145.96,-381 253.47,-381 309.15,-381"/>
<text text-anchor="middle" x="205.02" y="-384.8" font-family="Times,serif" font-size="14.00">Constraint</text>
</g>
<!-- subcmpOutputSignal -->
<g id="node4" class="node">
<title>subcmpOutputSignal</title>
<ellipse fill="#9bf6ff" stroke="black" cx="64.79" cy="-321" rx="48.58" ry="24.08"/>
<text text-anchor="middle" x="64.79" y="-324.4" font-family="Times,serif" font-size="12.00">Subcmp.</text>
<text text-anchor="middle" x="64.79" y="-311.4" font-family="Times,serif" font-size="12.00">output</text>
</g>
<!-- subcmpInputSignal -->
<g id="node5" class="node">
<title>subcmpInputSignal</title>
<ellipse fill="#caffbf" stroke="black" cx="345.26" cy="-321" rx="48.58" ry="24.08"/>
<text text-anchor="middle" x="345.26" y="-324.4" font-family="Times,serif" font-size="12.00">Subcmp.</text>
<text text-anchor="middle" x="345.26" y="-311.4" font-family="Times,serif" font-size="12.00">input</text>
</g>
<!-- subcmpOutputSignal&#45;&gt;subcmpInputSignal -->
<g id="edge2" class="edge">
<title>subcmpOutputSignal&#45;&gt;subcmpInputSignal</title>
<path fill="none" stroke="black" d="M113.66,-321C161.38,-321 234.73,-321 285.85,-321"/>
<polygon fill="black" stroke="black" points="286.08,-324.5 296.08,-321 286.08,-317.5 286.08,-324.5"/>
<text text-anchor="middle" x="205.02" y="-324.8" font-family="Times,serif" font-size="14.00">Data flow</text>
</g>
<!-- intermediateSignal -->
<g id="node6" class="node">
<title>intermediateSignal</title>
<ellipse fill="#fdffb6" stroke="black" cx="64.79" cy="-261" rx="40.03" ry="18"/>
<text text-anchor="middle" x="64.79" y="-257.9" font-family="Times,serif" font-size="12.00">Internal</text>
</g>
<!-- localVar -->
<g id="node7" class="node">
<title>localVar</title>
<ellipse fill="#f5f3e7" stroke="black" cx="345.26" cy="-261" rx="45.61" ry="18"/>
<text text-anchor="middle" x="345.26" y="-257.9" font-family="Times,serif" font-size="12.00">Local var</text>
</g>
<!-- intermediateSignal&#45;&gt;localVar -->
<!-- conditional -->
<g id="node8" class="node">
<title>conditional</title>
<polygon fill="#ffc6ff" stroke="black" points="64.79,-225 23.21,-207 64.79,-189 106.37,-207 64.79,-225"/>
<text text-anchor="middle" x="64.79" y="-203.9" font-family="Times,serif" font-size="12.00">Cond</text>
</g>
<!-- operator -->
<g id="node9" class="node">
<title>operator</title>
<polygon fill="#bdb2ff" stroke="black" points="372.26,-225 318.26,-225 318.26,-189 372.26,-189 372.26,-225"/>
<text text-anchor="middle" x="345.26" y="-203.9" font-family="Times,serif" font-size="12.00">Op</text>
</g>
<!-- conditional&#45;&gt;operator -->
<!-- Increment_0_a&#45;&gt;Increment_0_out -->
<g id="edge5" class="edge">
<title>Increment_0_a&#45;&gt;Increment_0_out</title>
<path fill="none" stroke="black" d="M90.99,-119.11C140.78,-109.46 251.84,-87.92 308.91,-76.85"/>
<polygon fill="black" stroke="black" points="309.76,-80.26 318.91,-74.92 308.43,-73.38 309.76,-80.26"/>
</g>
<!-- Increment_0_b&#45;&gt;Increment_0_out -->
<g id="edge6" class="edge">
<title>Increment_0_b&#45;&gt;Increment_0_out</title>
<path fill="none" stroke="black" stroke-width="3" stroke-dasharray="1,5" d="M91.99,-70C145.06,-70 264.74,-70 317.93,-70"/>
</g>
</g>
</svg>
